<mxfile host="Electron" modified="2025-02-19T03:58:49.299Z" agent="Mozilla/5.0 (Windows NT 10.0; Win64; x64) AppleWebKit/537.36 (KHTML, like Gecko) draw.io/22.0.3 Chrome/114.0.5735.289 Electron/25.8.4 Safari/537.36" etag="Swe2gwfJkGG9H41KvFLM" version="22.0.3" type="device">
  <diagram id="C5RBs43oDa-KdzZeNtuy" name="Page-1">
    <mxGraphModel dx="1500" dy="956" grid="1" gridSize="10" guides="1" tooltips="1" connect="1" arrows="1" fold="1" page="1" pageScale="4" pageWidth="827" pageHeight="1169" math="0" shadow="0">
      <root>
        <mxCell id="WIyWlLk6GJQsqaUBKTNV-0" />
        <mxCell id="WIyWlLk6GJQsqaUBKTNV-1" parent="WIyWlLk6GJQsqaUBKTNV-0" />
        <mxCell id="KFVkqnupWRqowM1G0bSo-0" value="Partner" style="swimlane;fontStyle=1;align=center;verticalAlign=middle;childLayout=stackLayout;horizontal=1;startSize=29;horizontalStack=0;resizeParent=1;resizeParentMax=0;resizeLast=0;collapsible=0;marginBottom=0;html=1;whiteSpace=wrap;" vertex="1" parent="WIyWlLk6GJQsqaUBKTNV-1">
          <mxGeometry x="20" y="20" width="140" height="179" as="geometry" />
        </mxCell>
        <mxCell id="KFVkqnupWRqowM1G0bSo-1" value="string Name" style="text;html=1;strokeColor=none;fillColor=none;align=left;verticalAlign=middle;spacingLeft=4;spacingRight=4;overflow=hidden;rotatable=0;points=[[0,0.5],[1,0.5]];portConstraint=eastwest;whiteSpace=wrap;" vertex="1" parent="KFVkqnupWRqowM1G0bSo-0">
          <mxGeometry y="29" width="140" height="25" as="geometry" />
        </mxCell>
        <mxCell id="KFVkqnupWRqowM1G0bSo-2" value="string Director" style="text;html=1;strokeColor=none;fillColor=none;align=left;verticalAlign=middle;spacingLeft=4;spacingRight=4;overflow=hidden;rotatable=0;points=[[0,0.5],[1,0.5]];portConstraint=eastwest;whiteSpace=wrap;" vertex="1" parent="KFVkqnupWRqowM1G0bSo-0">
          <mxGeometry y="54" width="140" height="25" as="geometry" />
        </mxCell>
        <mxCell id="KFVkqnupWRqowM1G0bSo-3" value="string Phone" style="text;html=1;strokeColor=none;fillColor=none;align=left;verticalAlign=middle;spacingLeft=4;spacingRight=4;overflow=hidden;rotatable=0;points=[[0,0.5],[1,0.5]];portConstraint=eastwest;whiteSpace=wrap;" vertex="1" parent="KFVkqnupWRqowM1G0bSo-0">
          <mxGeometry y="79" width="140" height="25" as="geometry" />
        </mxCell>
        <mxCell id="KFVkqnupWRqowM1G0bSo-4" value="string Rating" style="text;html=1;strokeColor=none;fillColor=none;align=left;verticalAlign=middle;spacingLeft=4;spacingRight=4;overflow=hidden;rotatable=0;points=[[0,0.5],[1,0.5]];portConstraint=eastwest;whiteSpace=wrap;" vertex="1" parent="KFVkqnupWRqowM1G0bSo-0">
          <mxGeometry y="104" width="140" height="25" as="geometry" />
        </mxCell>
        <mxCell id="KFVkqnupWRqowM1G0bSo-5" value="string Discount" style="text;html=1;strokeColor=none;fillColor=none;align=left;verticalAlign=middle;spacingLeft=4;spacingRight=4;overflow=hidden;rotatable=0;points=[[0,0.5],[1,0.5]];portConstraint=eastwest;whiteSpace=wrap;" vertex="1" parent="KFVkqnupWRqowM1G0bSo-0">
          <mxGeometry y="129" width="140" height="25" as="geometry" />
        </mxCell>
        <mxCell id="KFVkqnupWRqowM1G0bSo-6" value="string Inn" style="text;html=1;strokeColor=none;fillColor=none;align=left;verticalAlign=middle;spacingLeft=4;spacingRight=4;overflow=hidden;rotatable=0;points=[[0,0.5],[1,0.5]];portConstraint=eastwest;whiteSpace=wrap;" vertex="1" parent="KFVkqnupWRqowM1G0bSo-0">
          <mxGeometry y="154" width="140" height="25" as="geometry" />
        </mxCell>
        <mxCell id="KFVkqnupWRqowM1G0bSo-31" style="edgeStyle=orthogonalEdgeStyle;rounded=0;orthogonalLoop=1;jettySize=auto;html=1;exitX=0.5;exitY=0;exitDx=0;exitDy=0;entryX=0.5;entryY=1;entryDx=0;entryDy=0;" edge="1" parent="WIyWlLk6GJQsqaUBKTNV-1" source="KFVkqnupWRqowM1G0bSo-7" target="KFVkqnupWRqowM1G0bSo-28">
          <mxGeometry relative="1" as="geometry" />
        </mxCell>
        <mxCell id="KFVkqnupWRqowM1G0bSo-44" style="edgeStyle=orthogonalEdgeStyle;rounded=0;orthogonalLoop=1;jettySize=auto;html=1;exitX=1;exitY=0.75;exitDx=0;exitDy=0;entryX=0;entryY=0.5;entryDx=0;entryDy=0;" edge="1" parent="WIyWlLk6GJQsqaUBKTNV-1" source="KFVkqnupWRqowM1G0bSo-7" target="KFVkqnupWRqowM1G0bSo-36">
          <mxGeometry relative="1" as="geometry">
            <Array as="points">
              <mxPoint x="730" y="371" />
              <mxPoint x="730" y="222" />
            </Array>
          </mxGeometry>
        </mxCell>
        <mxCell id="KFVkqnupWRqowM1G0bSo-7" value="MainWindow" style="swimlane;fontStyle=1;align=center;verticalAlign=middle;childLayout=stackLayout;horizontal=1;startSize=29;horizontalStack=0;resizeParent=1;resizeParentMax=0;resizeLast=0;collapsible=0;marginBottom=0;html=1;whiteSpace=wrap;" vertex="1" parent="WIyWlLk6GJQsqaUBKTNV-1">
          <mxGeometry x="240" y="180" width="210" height="254" as="geometry" />
        </mxCell>
        <mxCell id="KFVkqnupWRqowM1G0bSo-34" value="MainWindow" style="text;html=1;strokeColor=none;fillColor=none;align=left;verticalAlign=middle;spacingLeft=4;spacingRight=4;overflow=hidden;rotatable=0;points=[[0,0.5],[1,0.5]];portConstraint=eastwest;whiteSpace=wrap;" vertex="1" parent="KFVkqnupWRqowM1G0bSo-7">
          <mxGeometry y="29" width="210" height="25" as="geometry" />
        </mxCell>
        <mxCell id="KFVkqnupWRqowM1G0bSo-9" value="LoadData" style="text;html=1;strokeColor=none;fillColor=none;align=left;verticalAlign=middle;spacingLeft=4;spacingRight=4;overflow=hidden;rotatable=0;points=[[0,0.5],[1,0.5]];portConstraint=eastwest;whiteSpace=wrap;" vertex="1" parent="KFVkqnupWRqowM1G0bSo-7">
          <mxGeometry y="54" width="210" height="25" as="geometry" />
        </mxCell>
        <mxCell id="KFVkqnupWRqowM1G0bSo-10" value="CalculateDiscount" style="text;html=1;strokeColor=none;fillColor=none;align=left;verticalAlign=middle;spacingLeft=4;spacingRight=4;overflow=hidden;rotatable=0;points=[[0,0.5],[1,0.5]];portConstraint=eastwest;whiteSpace=wrap;" vertex="1" parent="KFVkqnupWRqowM1G0bSo-7">
          <mxGeometry y="79" width="210" height="25" as="geometry" />
        </mxCell>
        <mxCell id="KFVkqnupWRqowM1G0bSo-11" value="OnPropertyChanged" style="text;html=1;strokeColor=none;fillColor=none;align=left;verticalAlign=middle;spacingLeft=4;spacingRight=4;overflow=hidden;rotatable=0;points=[[0,0.5],[1,0.5]];portConstraint=eastwest;whiteSpace=wrap;" vertex="1" parent="KFVkqnupWRqowM1G0bSo-7">
          <mxGeometry y="104" width="210" height="25" as="geometry" />
        </mxCell>
        <mxCell id="KFVkqnupWRqowM1G0bSo-12" value="ListViewScrollViewer_PreviewMouseWheel" style="text;html=1;strokeColor=none;fillColor=none;align=left;verticalAlign=middle;spacingLeft=4;spacingRight=4;overflow=hidden;rotatable=0;points=[[0,0.5],[1,0.5]];portConstraint=eastwest;whiteSpace=wrap;" vertex="1" parent="KFVkqnupWRqowM1G0bSo-7">
          <mxGeometry y="129" width="210" height="25" as="geometry" />
        </mxCell>
        <mxCell id="KFVkqnupWRqowM1G0bSo-13" value="addPartner_Button_Click" style="text;html=1;strokeColor=none;fillColor=none;align=left;verticalAlign=middle;spacingLeft=4;spacingRight=4;overflow=hidden;rotatable=0;points=[[0,0.5],[1,0.5]];portConstraint=eastwest;whiteSpace=wrap;" vertex="1" parent="KFVkqnupWRqowM1G0bSo-7">
          <mxGeometry y="154" width="210" height="25" as="geometry" />
        </mxCell>
        <mxCell id="KFVkqnupWRqowM1G0bSo-14" value="editButton_Click" style="text;html=1;strokeColor=none;fillColor=none;align=left;verticalAlign=middle;spacingLeft=4;spacingRight=4;overflow=hidden;rotatable=0;points=[[0,0.5],[1,0.5]];portConstraint=eastwest;whiteSpace=wrap;" vertex="1" parent="KFVkqnupWRqowM1G0bSo-7">
          <mxGeometry y="179" width="210" height="25" as="geometry" />
        </mxCell>
        <mxCell id="KFVkqnupWRqowM1G0bSo-15" value="partnerHistory_Button_Click" style="text;html=1;strokeColor=none;fillColor=none;align=left;verticalAlign=middle;spacingLeft=4;spacingRight=4;overflow=hidden;rotatable=0;points=[[0,0.5],[1,0.5]];portConstraint=eastwest;whiteSpace=wrap;" vertex="1" parent="KFVkqnupWRqowM1G0bSo-7">
          <mxGeometry y="204" width="210" height="25" as="geometry" />
        </mxCell>
        <mxCell id="KFVkqnupWRqowM1G0bSo-16" value="personalSale_Button_Click" style="text;html=1;strokeColor=none;fillColor=none;align=left;verticalAlign=middle;spacingLeft=4;spacingRight=4;overflow=hidden;rotatable=0;points=[[0,0.5],[1,0.5]];portConstraint=eastwest;whiteSpace=wrap;" vertex="1" parent="KFVkqnupWRqowM1G0bSo-7">
          <mxGeometry y="229" width="210" height="25" as="geometry" />
        </mxCell>
        <mxCell id="KFVkqnupWRqowM1G0bSo-32" style="edgeStyle=orthogonalEdgeStyle;rounded=0;orthogonalLoop=1;jettySize=auto;html=1;exitX=0.5;exitY=0;exitDx=0;exitDy=0;entryX=0.5;entryY=1;entryDx=0;entryDy=0;" edge="1" parent="WIyWlLk6GJQsqaUBKTNV-1" source="KFVkqnupWRqowM1G0bSo-19" target="KFVkqnupWRqowM1G0bSo-28">
          <mxGeometry relative="1" as="geometry" />
        </mxCell>
        <mxCell id="KFVkqnupWRqowM1G0bSo-19" value="PersonalSaleWindow" style="swimlane;fontStyle=1;align=center;verticalAlign=middle;childLayout=stackLayout;horizontal=1;startSize=29;horizontalStack=0;resizeParent=1;resizeParentMax=0;resizeLast=0;collapsible=0;marginBottom=0;html=1;whiteSpace=wrap;" vertex="1" parent="WIyWlLk6GJQsqaUBKTNV-1">
          <mxGeometry x="500" y="180" width="210" height="129" as="geometry" />
        </mxCell>
        <mxCell id="KFVkqnupWRqowM1G0bSo-20" value="PersonalSaleWindow" style="text;html=1;strokeColor=none;fillColor=none;align=left;verticalAlign=middle;spacingLeft=4;spacingRight=4;overflow=hidden;rotatable=0;points=[[0,0.5],[1,0.5]];portConstraint=eastwest;whiteSpace=wrap;" vertex="1" parent="KFVkqnupWRqowM1G0bSo-19">
          <mxGeometry y="29" width="210" height="25" as="geometry" />
        </mxCell>
        <mxCell id="KFVkqnupWRqowM1G0bSo-21" value="CalculateDiscount" style="text;html=1;strokeColor=none;fillColor=none;align=left;verticalAlign=middle;spacingLeft=4;spacingRight=4;overflow=hidden;rotatable=0;points=[[0,0.5],[1,0.5]];portConstraint=eastwest;whiteSpace=wrap;" vertex="1" parent="KFVkqnupWRqowM1G0bSo-19">
          <mxGeometry y="54" width="210" height="25" as="geometry" />
        </mxCell>
        <mxCell id="KFVkqnupWRqowM1G0bSo-22" value="Button_Click" style="text;html=1;strokeColor=none;fillColor=none;align=left;verticalAlign=middle;spacingLeft=4;spacingRight=4;overflow=hidden;rotatable=0;points=[[0,0.5],[1,0.5]];portConstraint=eastwest;whiteSpace=wrap;" vertex="1" parent="KFVkqnupWRqowM1G0bSo-19">
          <mxGeometry y="79" width="210" height="25" as="geometry" />
        </mxCell>
        <mxCell id="KFVkqnupWRqowM1G0bSo-23" value="back_button_Click" style="text;html=1;strokeColor=none;fillColor=none;align=left;verticalAlign=middle;spacingLeft=4;spacingRight=4;overflow=hidden;rotatable=0;points=[[0,0.5],[1,0.5]];portConstraint=eastwest;whiteSpace=wrap;" vertex="1" parent="KFVkqnupWRqowM1G0bSo-19">
          <mxGeometry y="104" width="210" height="25" as="geometry" />
        </mxCell>
        <mxCell id="KFVkqnupWRqowM1G0bSo-28" value="System.Windows.Window" style="rounded=0;whiteSpace=wrap;html=1;" vertex="1" parent="WIyWlLk6GJQsqaUBKTNV-1">
          <mxGeometry x="370" y="20" width="180" height="60" as="geometry" />
        </mxCell>
        <mxCell id="KFVkqnupWRqowM1G0bSo-33" style="edgeStyle=orthogonalEdgeStyle;rounded=0;orthogonalLoop=1;jettySize=auto;html=1;exitX=1;exitY=0.5;exitDx=0;exitDy=0;entryX=0;entryY=0.5;entryDx=0;entryDy=0;" edge="1" parent="WIyWlLk6GJQsqaUBKTNV-1" source="KFVkqnupWRqowM1G0bSo-16" target="KFVkqnupWRqowM1G0bSo-20">
          <mxGeometry relative="1" as="geometry" />
        </mxCell>
        <mxCell id="KFVkqnupWRqowM1G0bSo-40" style="edgeStyle=orthogonalEdgeStyle;rounded=0;orthogonalLoop=1;jettySize=auto;html=1;exitX=0.5;exitY=0;exitDx=0;exitDy=0;entryX=0.5;entryY=1;entryDx=0;entryDy=0;" edge="1" parent="WIyWlLk6GJQsqaUBKTNV-1" source="KFVkqnupWRqowM1G0bSo-35" target="KFVkqnupWRqowM1G0bSo-28">
          <mxGeometry relative="1" as="geometry" />
        </mxCell>
        <mxCell id="KFVkqnupWRqowM1G0bSo-35" value="EditPartner" style="swimlane;fontStyle=1;align=center;verticalAlign=middle;childLayout=stackLayout;horizontal=1;startSize=29;horizontalStack=0;resizeParent=1;resizeParentMax=0;resizeLast=0;collapsible=0;marginBottom=0;html=1;whiteSpace=wrap;" vertex="1" parent="WIyWlLk6GJQsqaUBKTNV-1">
          <mxGeometry x="750" y="180" width="210" height="179" as="geometry" />
        </mxCell>
        <mxCell id="KFVkqnupWRqowM1G0bSo-36" value="EditPartner" style="text;html=1;strokeColor=none;fillColor=none;align=left;verticalAlign=middle;spacingLeft=4;spacingRight=4;overflow=hidden;rotatable=0;points=[[0,0.5],[1,0.5]];portConstraint=eastwest;whiteSpace=wrap;" vertex="1" parent="KFVkqnupWRqowM1G0bSo-35">
          <mxGeometry y="29" width="210" height="25" as="geometry" />
        </mxCell>
        <mxCell id="KFVkqnupWRqowM1G0bSo-37" value="LoadPartnerTypes" style="text;html=1;strokeColor=none;fillColor=none;align=left;verticalAlign=middle;spacingLeft=4;spacingRight=4;overflow=hidden;rotatable=0;points=[[0,0.5],[1,0.5]];portConstraint=eastwest;whiteSpace=wrap;" vertex="1" parent="KFVkqnupWRqowM1G0bSo-35">
          <mxGeometry y="54" width="210" height="25" as="geometry" />
        </mxCell>
        <mxCell id="KFVkqnupWRqowM1G0bSo-38" value="LoadPartnerData" style="text;html=1;strokeColor=none;fillColor=none;align=left;verticalAlign=middle;spacingLeft=4;spacingRight=4;overflow=hidden;rotatable=0;points=[[0,0.5],[1,0.5]];portConstraint=eastwest;whiteSpace=wrap;" vertex="1" parent="KFVkqnupWRqowM1G0bSo-35">
          <mxGeometry y="79" width="210" height="25" as="geometry" />
        </mxCell>
        <mxCell id="KFVkqnupWRqowM1G0bSo-39" value="ContainsForbiddenChars" style="text;html=1;strokeColor=none;fillColor=none;align=left;verticalAlign=middle;spacingLeft=4;spacingRight=4;overflow=hidden;rotatable=0;points=[[0,0.5],[1,0.5]];portConstraint=eastwest;whiteSpace=wrap;" vertex="1" parent="KFVkqnupWRqowM1G0bSo-35">
          <mxGeometry y="104" width="210" height="25" as="geometry" />
        </mxCell>
        <mxCell id="KFVkqnupWRqowM1G0bSo-41" value="save_button_Click" style="text;html=1;strokeColor=none;fillColor=none;align=left;verticalAlign=middle;spacingLeft=4;spacingRight=4;overflow=hidden;rotatable=0;points=[[0,0.5],[1,0.5]];portConstraint=eastwest;whiteSpace=wrap;" vertex="1" parent="KFVkqnupWRqowM1G0bSo-35">
          <mxGeometry y="129" width="210" height="25" as="geometry" />
        </mxCell>
        <mxCell id="KFVkqnupWRqowM1G0bSo-42" value="back_button_Click" style="text;html=1;strokeColor=none;fillColor=none;align=left;verticalAlign=middle;spacingLeft=4;spacingRight=4;overflow=hidden;rotatable=0;points=[[0,0.5],[1,0.5]];portConstraint=eastwest;whiteSpace=wrap;" vertex="1" parent="KFVkqnupWRqowM1G0bSo-35">
          <mxGeometry y="154" width="210" height="25" as="geometry" />
        </mxCell>
        <mxCell id="KFVkqnupWRqowM1G0bSo-53" style="edgeStyle=orthogonalEdgeStyle;rounded=0;orthogonalLoop=1;jettySize=auto;html=1;exitX=0.5;exitY=0;exitDx=0;exitDy=0;entryX=0.5;entryY=1;entryDx=0;entryDy=0;" edge="1" parent="WIyWlLk6GJQsqaUBKTNV-1" source="KFVkqnupWRqowM1G0bSo-46" target="KFVkqnupWRqowM1G0bSo-28">
          <mxGeometry relative="1" as="geometry" />
        </mxCell>
        <mxCell id="KFVkqnupWRqowM1G0bSo-46" value="AddPartner" style="swimlane;fontStyle=1;align=center;verticalAlign=middle;childLayout=stackLayout;horizontal=1;startSize=29;horizontalStack=0;resizeParent=1;resizeParentMax=0;resizeLast=0;collapsible=0;marginBottom=0;html=1;whiteSpace=wrap;" vertex="1" parent="WIyWlLk6GJQsqaUBKTNV-1">
          <mxGeometry x="1000" y="180" width="210" height="154" as="geometry" />
        </mxCell>
        <mxCell id="KFVkqnupWRqowM1G0bSo-47" value="AddPartner" style="text;html=1;strokeColor=none;fillColor=none;align=left;verticalAlign=middle;spacingLeft=4;spacingRight=4;overflow=hidden;rotatable=0;points=[[0,0.5],[1,0.5]];portConstraint=eastwest;whiteSpace=wrap;" vertex="1" parent="KFVkqnupWRqowM1G0bSo-46">
          <mxGeometry y="29" width="210" height="25" as="geometry" />
        </mxCell>
        <mxCell id="KFVkqnupWRqowM1G0bSo-48" value="LoadPartnerTypes" style="text;html=1;strokeColor=none;fillColor=none;align=left;verticalAlign=middle;spacingLeft=4;spacingRight=4;overflow=hidden;rotatable=0;points=[[0,0.5],[1,0.5]];portConstraint=eastwest;whiteSpace=wrap;" vertex="1" parent="KFVkqnupWRqowM1G0bSo-46">
          <mxGeometry y="54" width="210" height="25" as="geometry" />
        </mxCell>
        <mxCell id="KFVkqnupWRqowM1G0bSo-49" value="ContainsForbiddenChars" style="text;html=1;strokeColor=none;fillColor=none;align=left;verticalAlign=middle;spacingLeft=4;spacingRight=4;overflow=hidden;rotatable=0;points=[[0,0.5],[1,0.5]];portConstraint=eastwest;whiteSpace=wrap;" vertex="1" parent="KFVkqnupWRqowM1G0bSo-46">
          <mxGeometry y="79" width="210" height="25" as="geometry" />
        </mxCell>
        <mxCell id="KFVkqnupWRqowM1G0bSo-50" value="save_button_Click" style="text;html=1;strokeColor=none;fillColor=none;align=left;verticalAlign=middle;spacingLeft=4;spacingRight=4;overflow=hidden;rotatable=0;points=[[0,0.5],[1,0.5]];portConstraint=eastwest;whiteSpace=wrap;" vertex="1" parent="KFVkqnupWRqowM1G0bSo-46">
          <mxGeometry y="104" width="210" height="25" as="geometry" />
        </mxCell>
        <mxCell id="KFVkqnupWRqowM1G0bSo-51" value="back_button_Click" style="text;html=1;strokeColor=none;fillColor=none;align=left;verticalAlign=middle;spacingLeft=4;spacingRight=4;overflow=hidden;rotatable=0;points=[[0,0.5],[1,0.5]];portConstraint=eastwest;whiteSpace=wrap;" vertex="1" parent="KFVkqnupWRqowM1G0bSo-46">
          <mxGeometry y="129" width="210" height="25" as="geometry" />
        </mxCell>
        <mxCell id="KFVkqnupWRqowM1G0bSo-55" style="edgeStyle=orthogonalEdgeStyle;rounded=0;orthogonalLoop=1;jettySize=auto;html=1;exitX=1;exitY=0.5;exitDx=0;exitDy=0;entryX=0;entryY=0.5;entryDx=0;entryDy=0;" edge="1" parent="WIyWlLk6GJQsqaUBKTNV-1" source="KFVkqnupWRqowM1G0bSo-13" target="KFVkqnupWRqowM1G0bSo-47">
          <mxGeometry relative="1" as="geometry">
            <Array as="points">
              <mxPoint x="500" y="347" />
              <mxPoint x="500" y="400" />
              <mxPoint x="980" y="400" />
              <mxPoint x="980" y="222" />
            </Array>
          </mxGeometry>
        </mxCell>
        <mxCell id="KFVkqnupWRqowM1G0bSo-62" style="edgeStyle=orthogonalEdgeStyle;rounded=0;orthogonalLoop=1;jettySize=auto;html=1;exitX=0.5;exitY=0;exitDx=0;exitDy=0;entryX=0.5;entryY=1;entryDx=0;entryDy=0;" edge="1" parent="WIyWlLk6GJQsqaUBKTNV-1" source="KFVkqnupWRqowM1G0bSo-56" target="KFVkqnupWRqowM1G0bSo-28">
          <mxGeometry relative="1" as="geometry" />
        </mxCell>
        <mxCell id="KFVkqnupWRqowM1G0bSo-56" value="HistoryWindow" style="swimlane;fontStyle=1;align=center;verticalAlign=middle;childLayout=stackLayout;horizontal=1;startSize=29;horizontalStack=0;resizeParent=1;resizeParentMax=0;resizeLast=0;collapsible=0;marginBottom=0;html=1;whiteSpace=wrap;" vertex="1" parent="WIyWlLk6GJQsqaUBKTNV-1">
          <mxGeometry x="1250" y="180" width="210" height="129" as="geometry" />
        </mxCell>
        <mxCell id="KFVkqnupWRqowM1G0bSo-57" value="HistoryWindow" style="text;html=1;strokeColor=none;fillColor=none;align=left;verticalAlign=middle;spacingLeft=4;spacingRight=4;overflow=hidden;rotatable=0;points=[[0,0.5],[1,0.5]];portConstraint=eastwest;whiteSpace=wrap;" vertex="1" parent="KFVkqnupWRqowM1G0bSo-56">
          <mxGeometry y="29" width="210" height="25" as="geometry" />
        </mxCell>
        <mxCell id="KFVkqnupWRqowM1G0bSo-58" value="LoadSalesHistory" style="text;html=1;strokeColor=none;fillColor=none;align=left;verticalAlign=middle;spacingLeft=4;spacingRight=4;overflow=hidden;rotatable=0;points=[[0,0.5],[1,0.5]];portConstraint=eastwest;whiteSpace=wrap;" vertex="1" parent="KFVkqnupWRqowM1G0bSo-56">
          <mxGeometry y="54" width="210" height="25" as="geometry" />
        </mxCell>
        <mxCell id="KFVkqnupWRqowM1G0bSo-59" value="DrawSalesChart" style="text;html=1;strokeColor=none;fillColor=none;align=left;verticalAlign=middle;spacingLeft=4;spacingRight=4;overflow=hidden;rotatable=0;points=[[0,0.5],[1,0.5]];portConstraint=eastwest;whiteSpace=wrap;" vertex="1" parent="KFVkqnupWRqowM1G0bSo-56">
          <mxGeometry y="79" width="210" height="25" as="geometry" />
        </mxCell>
        <mxCell id="KFVkqnupWRqowM1G0bSo-60" value="back_button_Click" style="text;html=1;strokeColor=none;fillColor=none;align=left;verticalAlign=middle;spacingLeft=4;spacingRight=4;overflow=hidden;rotatable=0;points=[[0,0.5],[1,0.5]];portConstraint=eastwest;whiteSpace=wrap;" vertex="1" parent="KFVkqnupWRqowM1G0bSo-56">
          <mxGeometry y="104" width="210" height="25" as="geometry" />
        </mxCell>
        <mxCell id="KFVkqnupWRqowM1G0bSo-63" style="edgeStyle=orthogonalEdgeStyle;rounded=0;orthogonalLoop=1;jettySize=auto;html=1;exitX=1;exitY=0.5;exitDx=0;exitDy=0;entryX=0;entryY=0.5;entryDx=0;entryDy=0;" edge="1" parent="WIyWlLk6GJQsqaUBKTNV-1" source="KFVkqnupWRqowM1G0bSo-15" target="KFVkqnupWRqowM1G0bSo-57">
          <mxGeometry relative="1" as="geometry">
            <Array as="points">
              <mxPoint x="1230" y="397" />
              <mxPoint x="1230" y="221" />
            </Array>
          </mxGeometry>
        </mxCell>
        <mxCell id="KFVkqnupWRqowM1G0bSo-64" value="DbConnectionManager" style="swimlane;fontStyle=1;align=center;verticalAlign=middle;childLayout=stackLayout;horizontal=1;startSize=29;horizontalStack=0;resizeParent=1;resizeParentMax=0;resizeLast=0;collapsible=0;marginBottom=0;html=1;whiteSpace=wrap;" vertex="1" parent="WIyWlLk6GJQsqaUBKTNV-1">
          <mxGeometry x="20" y="210" width="210" height="104" as="geometry" />
        </mxCell>
        <mxCell id="KFVkqnupWRqowM1G0bSo-65" value="Command" style="text;html=1;strokeColor=none;fillColor=none;align=left;verticalAlign=middle;spacingLeft=4;spacingRight=4;overflow=hidden;rotatable=0;points=[[0,0.5],[1,0.5]];portConstraint=eastwest;whiteSpace=wrap;" vertex="1" parent="KFVkqnupWRqowM1G0bSo-64">
          <mxGeometry y="29" width="210" height="25" as="geometry" />
        </mxCell>
        <mxCell id="KFVkqnupWRqowM1G0bSo-66" value="DataAdapter" style="text;html=1;strokeColor=none;fillColor=none;align=left;verticalAlign=middle;spacingLeft=4;spacingRight=4;overflow=hidden;rotatable=0;points=[[0,0.5],[1,0.5]];portConstraint=eastwest;whiteSpace=wrap;" vertex="1" parent="KFVkqnupWRqowM1G0bSo-64">
          <mxGeometry y="54" width="210" height="25" as="geometry" />
        </mxCell>
        <mxCell id="KFVkqnupWRqowM1G0bSo-67" value="Initialize" style="text;html=1;strokeColor=none;fillColor=none;align=left;verticalAlign=middle;spacingLeft=4;spacingRight=4;overflow=hidden;rotatable=0;points=[[0,0.5],[1,0.5]];portConstraint=eastwest;whiteSpace=wrap;" vertex="1" parent="KFVkqnupWRqowM1G0bSo-64">
          <mxGeometry y="79" width="210" height="25" as="geometry" />
        </mxCell>
      </root>
    </mxGraphModel>
  </diagram>
</mxfile>
